<mxfile modified="2021-09-17T17:24:59.125Z" host="app.diagrams.net" agent="5.0 (Windows NT 10.0; Win64; x64) AppleWebKit/537.36 (KHTML, like Gecko) Chrome/91.0.4472.164 Safari/537.36" etag="lvp7uzjIvlFgQzdRSH4w" version="14.1.8" type="github">
  <diagram id="Ht1M8jgEwFfnCIfOTk4-" name="Page-1">
    <mxGraphModel dx="1422" dy="1589" grid="1" gridSize="10" guides="1" tooltips="1" connect="1" arrows="1" fold="1" page="1" pageScale="1" pageWidth="1169" pageHeight="827" math="0" shadow="0">
      <root>
        <mxCell id="0" />
        <mxCell id="1" parent="0" />
        <mxCell id="dXRNuTPPtPYlwY6yKUSY-2" style="edgeStyle=orthogonalEdgeStyle;rounded=0;orthogonalLoop=1;jettySize=auto;html=1;" edge="1" parent="1" source="dXRNuTPPtPYlwY6yKUSY-1" target="dXRNuTPPtPYlwY6yKUSY-4">
          <mxGeometry relative="1" as="geometry">
            <mxPoint x="546" y="-470" as="targetPoint" />
            <Array as="points">
              <mxPoint x="546" y="-470" />
              <mxPoint x="409" y="-470" />
            </Array>
          </mxGeometry>
        </mxCell>
        <mxCell id="dXRNuTPPtPYlwY6yKUSY-6" style="edgeStyle=orthogonalEdgeStyle;rounded=0;orthogonalLoop=1;jettySize=auto;html=1;" edge="1" parent="1" source="dXRNuTPPtPYlwY6yKUSY-1" target="dXRNuTPPtPYlwY6yKUSY-5">
          <mxGeometry relative="1" as="geometry">
            <Array as="points">
              <mxPoint x="546" y="-470" />
              <mxPoint x="280" y="-470" />
            </Array>
          </mxGeometry>
        </mxCell>
        <mxCell id="dXRNuTPPtPYlwY6yKUSY-8" style="edgeStyle=orthogonalEdgeStyle;rounded=0;orthogonalLoop=1;jettySize=auto;html=1;" edge="1" parent="1" source="dXRNuTPPtPYlwY6yKUSY-1" target="dXRNuTPPtPYlwY6yKUSY-7">
          <mxGeometry relative="1" as="geometry">
            <Array as="points">
              <mxPoint x="546" y="-570" />
              <mxPoint x="546" y="-570" />
            </Array>
          </mxGeometry>
        </mxCell>
        <mxCell id="dXRNuTPPtPYlwY6yKUSY-10" style="edgeStyle=orthogonalEdgeStyle;rounded=0;orthogonalLoop=1;jettySize=auto;html=1;" edge="1" parent="1" source="dXRNuTPPtPYlwY6yKUSY-1" target="dXRNuTPPtPYlwY6yKUSY-9">
          <mxGeometry relative="1" as="geometry">
            <Array as="points">
              <mxPoint x="530" y="-470" />
              <mxPoint x="694" y="-470" />
            </Array>
          </mxGeometry>
        </mxCell>
        <mxCell id="dXRNuTPPtPYlwY6yKUSY-13" style="edgeStyle=orthogonalEdgeStyle;rounded=0;orthogonalLoop=1;jettySize=auto;html=1;" edge="1" parent="1" source="dXRNuTPPtPYlwY6yKUSY-1" target="dXRNuTPPtPYlwY6yKUSY-11">
          <mxGeometry relative="1" as="geometry">
            <Array as="points">
              <mxPoint x="560" y="-470" />
              <mxPoint x="860" y="-470" />
            </Array>
          </mxGeometry>
        </mxCell>
        <mxCell id="dXRNuTPPtPYlwY6yKUSY-1" value="" style="outlineConnect=0;fontColor=#232F3E;gradientColor=#945DF2;gradientDirection=north;fillColor=#5A30B5;strokeColor=#ffffff;dashed=0;verticalLabelPosition=bottom;verticalAlign=top;align=center;html=1;fontSize=12;fontStyle=0;aspect=fixed;shape=mxgraph.aws4.resourceIcon;resIcon=mxgraph.aws4.redshift;" vertex="1" parent="1">
          <mxGeometry x="499.5" y="-700" width="93" height="93" as="geometry" />
        </mxCell>
        <mxCell id="dXRNuTPPtPYlwY6yKUSY-15" style="edgeStyle=orthogonalEdgeStyle;rounded=0;orthogonalLoop=1;jettySize=auto;html=1;" edge="1" parent="1" source="dXRNuTPPtPYlwY6yKUSY-4" target="dXRNuTPPtPYlwY6yKUSY-14">
          <mxGeometry relative="1" as="geometry">
            <Array as="points">
              <mxPoint x="409" y="-310" />
              <mxPoint x="315" y="-310" />
            </Array>
          </mxGeometry>
        </mxCell>
        <mxCell id="dXRNuTPPtPYlwY6yKUSY-18" style="edgeStyle=orthogonalEdgeStyle;rounded=0;orthogonalLoop=1;jettySize=auto;html=1;" edge="1" parent="1" source="dXRNuTPPtPYlwY6yKUSY-4">
          <mxGeometry relative="1" as="geometry">
            <mxPoint x="409" y="-170" as="targetPoint" />
          </mxGeometry>
        </mxCell>
        <mxCell id="dXRNuTPPtPYlwY6yKUSY-22" style="edgeStyle=orthogonalEdgeStyle;rounded=0;orthogonalLoop=1;jettySize=auto;html=1;" edge="1" parent="1" source="dXRNuTPPtPYlwY6yKUSY-4" target="dXRNuTPPtPYlwY6yKUSY-20">
          <mxGeometry relative="1" as="geometry">
            <Array as="points">
              <mxPoint x="409" y="-310" />
              <mxPoint x="500" y="-310" />
            </Array>
          </mxGeometry>
        </mxCell>
        <mxCell id="dXRNuTPPtPYlwY6yKUSY-4" value="Product 2" style="outlineConnect=0;fillColor=#dae8fc;strokeColor=#6c8ebf;dashed=0;verticalLabelPosition=bottom;verticalAlign=top;align=center;html=1;fontSize=12;fontStyle=0;aspect=fixed;pointerEvents=1;shape=mxgraph.aws4.generic_database;spacingTop=-44;" vertex="1" parent="1">
          <mxGeometry x="379.5" y="-430" width="59" height="78" as="geometry" />
        </mxCell>
        <mxCell id="dXRNuTPPtPYlwY6yKUSY-5" value="Product 1" style="outlineConnect=0;strokeColor=#82b366;dashed=0;verticalLabelPosition=bottom;verticalAlign=top;align=center;html=1;fontSize=12;fontStyle=0;aspect=fixed;pointerEvents=1;shape=mxgraph.aws4.generic_database;fillColor=#d5e8d4;spacingTop=-44;" vertex="1" parent="1">
          <mxGeometry x="250" y="-430" width="59" height="78" as="geometry" />
        </mxCell>
        <mxCell id="dXRNuTPPtPYlwY6yKUSY-7" value="Product 3" style="outlineConnect=0;fillColor=#fff2cc;strokeColor=#d6b656;dashed=0;verticalLabelPosition=bottom;verticalAlign=top;align=center;html=1;fontSize=12;fontStyle=0;aspect=fixed;pointerEvents=1;shape=mxgraph.aws4.generic_database;spacingTop=-44;" vertex="1" parent="1">
          <mxGeometry x="516.5" y="-430" width="59" height="78" as="geometry" />
        </mxCell>
        <mxCell id="dXRNuTPPtPYlwY6yKUSY-9" value="Product 4" style="outlineConnect=0;fillColor=#f8cecc;strokeColor=#b85450;dashed=0;verticalLabelPosition=bottom;verticalAlign=top;align=center;html=1;fontSize=12;fontStyle=0;aspect=fixed;pointerEvents=1;shape=mxgraph.aws4.generic_database;spacingTop=-44;" vertex="1" parent="1">
          <mxGeometry x="664" y="-430" width="59" height="78" as="geometry" />
        </mxCell>
        <mxCell id="dXRNuTPPtPYlwY6yKUSY-11" value="Product 5" style="outlineConnect=0;fillColor=#e1d5e7;strokeColor=#9673a6;dashed=0;verticalLabelPosition=bottom;verticalAlign=top;align=center;html=1;fontSize=12;fontStyle=0;aspect=fixed;pointerEvents=1;shape=mxgraph.aws4.generic_database;spacingTop=-44;" vertex="1" parent="1">
          <mxGeometry x="830" y="-430" width="59" height="78" as="geometry" />
        </mxCell>
        <mxCell id="dXRNuTPPtPYlwY6yKUSY-17" value="" style="edgeStyle=orthogonalEdgeStyle;rounded=0;orthogonalLoop=1;jettySize=auto;html=1;" edge="1" parent="1" source="dXRNuTPPtPYlwY6yKUSY-14">
          <mxGeometry relative="1" as="geometry">
            <mxPoint x="311.5" y="70.12977446650711" as="targetPoint" />
            <Array as="points">
              <mxPoint x="312" y="-50" />
              <mxPoint x="312" y="-50" />
            </Array>
          </mxGeometry>
        </mxCell>
        <mxCell id="dXRNuTPPtPYlwY6yKUSY-14" value="Campaign A" style="outlineConnect=0;strokeColor=#b85450;dashed=1;verticalLabelPosition=bottom;verticalAlign=top;align=center;html=1;fontSize=12;fontStyle=0;aspect=fixed;pointerEvents=1;shape=mxgraph.aws4.generic_database;fillColor=#F8CECC;whiteSpace=wrap;spacingTop=-44;" vertex="1" parent="1">
          <mxGeometry x="282" y="-170" width="59" height="78" as="geometry" />
        </mxCell>
        <mxCell id="dXRNuTPPtPYlwY6yKUSY-19" value="Campaign B" style="outlineConnect=0;strokeColor=#b85450;dashed=1;verticalLabelPosition=bottom;verticalAlign=top;align=center;html=1;fontSize=12;fontStyle=0;aspect=fixed;pointerEvents=1;shape=mxgraph.aws4.generic_database;fillColor=#F8CECC;whiteSpace=wrap;spacingTop=-44;" vertex="1" parent="1">
          <mxGeometry x="379.5" y="-170" width="59" height="78" as="geometry" />
        </mxCell>
        <mxCell id="dXRNuTPPtPYlwY6yKUSY-20" value="Campaign C" style="outlineConnect=0;strokeColor=#b85450;dashed=1;verticalLabelPosition=bottom;verticalAlign=top;align=center;html=1;fontSize=12;fontStyle=0;aspect=fixed;pointerEvents=1;shape=mxgraph.aws4.generic_database;fillColor=#F8CECC;whiteSpace=wrap;spacingTop=-44;" vertex="1" parent="1">
          <mxGeometry x="470" y="-170" width="59" height="78" as="geometry" />
        </mxCell>
      </root>
    </mxGraphModel>
  </diagram>
</mxfile>
